# xmcd CD database file
#
# Track frame offsets:
#	150
#	23266
#	41948
#	70016
#	80406
#	105025
#	128823
#	148450
#	165553
#	171476
#
# Disc length: 2627 seconds
#
# Revision: 0
# Processed by: cddbd v1.5.1PL0 Copyright (c) Steve Scherf et al.
# Submitted via: CDex 1.51
#
DISCID=7e0a410a
DTITLE=Joachim Raffel Trio - béguine the begin
DYEAR=1900
DGENRE=Jazz
TTITLE0=now let me know
TTITLE1=rush hour
TTITLE2=moments of memories
TTITLE3=interlude
TTITLE4=honestly
TTITLE5=béguine francaise
TTITLE6=circulum circulorum
TTITLE7=years before
TTITLE8=difference
TTITLE9=lullaby
EXTD=
EXTT0=
EXTT1=
EXTT2=
EXTT3=
EXTT4=
EXTT5=
EXTT6=
EXTT7=
EXTT8=
EXTT9=
PLAYORDER=
